<?xml version="1.0" encoding="utf-8"?>
<!-- Generator: Adobe Illustrator 23.1.0, SVG Export Plug-In . SVG Version: 6.00 Build 0)  -->
<svg version="1.1" id="Layer_1" xmlns="http://www.w3.org/2000/svg" xmlns:xlink="http://www.w3.org/1999/xlink" x="0px" y="0px"
	 viewBox="0 0 162 208" style="enable-background:new 0 0 162 208;" xml:space="preserve">
<style type="text/css">
	.st0{stroke:#231F20;stroke-miterlimit:10;}
</style>
<path class="st0" d="M81.8,7.96L81,7.88L4.31,15.92v140.57L81,202.12l76.69-45.63V15.92L81.8,7.96z M147.66,150.78L81,190.45
	l-66.66-39.66V93.17l66.37,39.51l0.11,7.16l-45.53-27.1l-0.07,6.95l45.71,27.47l0.11,7.35l-45.7-27.19l-0.07,6.95L81,161.75
	l46.15-27.62v-6.98l-0.06,0.03v-2.39v-2.86v-17.46l20.57-12.28V150.78z M147.61,84.72l-18.24,10.74l-8.42,4.96L80.8,76.54
	l-0.07,6.95l34.32,20.41l-0.3,0.18l-0.74,0.44l-4.88,2.87L80.8,90.54l-0.07,6.95l22.36,13.3l-5.28,3.53l-0.13,0.08l-16.89-9.95
	l-0.07,6.95l11.08,6.53l-11.29,6.78L14.48,85.44l66.14-39.75v0.01L147.61,84.72z M147.66,77.73L80.64,38.22v-0.01l-0.01,0l-0.01,0
	v0.01L14.34,77.69V24.96L81,17.97l66.66,6.99V77.73z"/>
</svg>
