<?xml version="1.0" encoding="utf-8"?>
<!-- Generator: Adobe Illustrator 23.1.0, SVG Export Plug-In . SVG Version: 6.00 Build 0)  -->
<svg version="1.1" id="Layer_1" xmlns="http://www.w3.org/2000/svg" xmlns:xlink="http://www.w3.org/1999/xlink" x="0px" y="0px"
	 viewBox="8.01 4.35 31.97 37.3" style="enable-background:new 8.01 4.35 31.97 37.3;" xml:space="preserve">
<style type="text/css">
	.st0{fill:#63D1BB;}
</style>
<g id="XMLID_1_">
	<g>
		<path class="st0" d="M24,41.65c0-8.83,7.16-15.99,15.99-15.99C39.99,34.49,32.83,41.65,24,41.65z"/>
		<path class="st0" d="M35.36,12.79c0,1.76-1.05,3.28-2.54,3.99c1.5,0.71,2.54,2.23,2.54,4c0,2.45-1.99,4.44-4.44,4.44
			c-0.93,0-1.8-0.28-2.52-0.78l0.04,0.34c0,2.45-1.99,4.44-4.44,4.44s-4.44-1.99-4.44-4.44l0.03-0.34
			c-0.71,0.49-1.58,0.78-2.51,0.78c-2.45,0-4.44-1.99-4.44-4.44c0-1.77,1.04-3.29,2.54-4c-1.5-0.71-2.54-2.23-2.54-3.99
			c0-2.45,1.99-4.44,4.44-4.44c0.93,0,1.8,0.28,2.51,0.78l-0.03-0.34c0-2.45,1.99-4.44,4.44-4.44s4.44,1.99,4.44,4.44L28.4,9.13
			c0.72-0.49,1.59-0.78,2.52-0.78C33.37,8.35,35.36,10.34,35.36,12.79z M28.44,16.78c0-2.45-1.99-4.44-4.44-4.44
			s-4.44,1.99-4.44,4.44s1.99,4.44,4.44,4.44S28.44,19.23,28.44,16.78z"/>
		<path class="st0" d="M24,41.65c-8.83,0-15.99-7.16-15.99-15.99C16.84,25.66,24,32.82,24,41.65z"/>
	</g>
	<g>
	</g>
</g>
</svg>
