<?xml version="1.0" encoding="utf-8"?>
<!-- Generator: Adobe Illustrator 23.1.0, SVG Export Plug-In . SVG Version: 6.00 Build 0)  -->
<svg version="1.1" id="svg4488" xmlns="http://www.w3.org/2000/svg" xmlns:xlink="http://www.w3.org/1999/xlink" x="0px" y="0px"
	 viewBox="-259.4 -19.67 40.22 62.41" style="enable-background:new -259.4 -19.67 40.22 62.41;" xml:space="preserve">
<style type="text/css">
	.st0{fill:#3BB09D;}
</style>
<g>
	<g id="XMLID_1_">
		<g>
			<path class="st0" d="M-230.1,40.51v2.23h-2.3h-13.79h-2.3v-2.23c0-1.26,1-2.23,2.3-2.23h13.79
				C-231.1,38.28-230.1,39.25-230.1,40.51z"/>
			<path class="st0" d="M-234.27,18.29c0.29,0.96,0.25,2.17-0.04,3.62c-0.52,2.63-1.77,6.04-2.47,9.68h-5.06
				c-0.67-3.63-1.87-7.03-2.36-9.67c-0.27-1.45-0.31-2.67-0.03-3.64c0.27-0.9,0.87-1.61,1.94-2.29h6
				C-235.16,16.67-234.54,17.39-234.27,18.29z"/>
			<path class="st0" d="M-235.84,33.82c0.65,0,1.15,0.48,1.15,1.12c0,0.63-0.5,1.11-1.15,1.11h-6.9c-0.66,0-1.15-0.48-1.15-1.11
				c0-0.64,0.49-1.12,1.15-1.12h6.86H-235.84z"/>
			<path class="st0" d="M-238.14,9.96v3.73h-2.3V9.96c0.2-0.15,0.41-0.32,0.57-0.41c0.24-0.14,0.43-0.21,0.58-0.21
				C-239.05,9.34-238.65,9.58-238.14,9.96z"/>
			<path class="st0" d="M-242.21,8.46c-0.35,0.28-0.63,0.49-0.88,0.63c-0.24,0.14-0.43,0.21-0.58,0.21c-0.29,0-0.76-0.29-1.45-0.84
				c-0.68-0.55-1.57-1.35-2.92-1.35c-1.35,0-2.23,0.81-2.91,1.36c-0.68,0.55-1.16,0.83-1.45,0.83c-0.29,0-0.77-0.29-1.45-0.85
				c-0.68-0.55-1.56-1.37-2.92-1.37c-1.05,0-1.84,0.53-2.63,0.99l6.07-25.52h11.74c0-1.24,1.01-2.22,2.3-2.22
				c1.28,0,2.3,0.98,2.3,2.22h11.73l6.07,25.51c-0.79-0.46-1.58-1-2.63-1c-1.36,0-2.25,0.83-2.93,1.39
				c-0.68,0.56-1.15,0.85-1.44,0.85c-0.14,0-0.33-0.07-0.57-0.21c-0.24-0.14-0.53-0.36-0.87-0.63c-0.68-0.56-1.57-1.37-2.92-1.37
				c-1.36,0-2.24,0.81-2.93,1.36c-0.68,0.56-1.16,0.85-1.44,0.85c-0.3,0-0.77-0.29-1.46-0.84c-0.68-0.55-1.57-1.35-2.91-1.35
				c-0.34,0-0.65,0.05-0.93,0.13C-241.08,7.49-241.7,8.05-242.21,8.46z"/>
		</g>
		<g>
		</g>
	</g>
</g>
</svg>
