<?xml version="1.0" encoding="utf-8"?>
<!-- Generator: Adobe Illustrator 23.1.0, SVG Export Plug-In . SVG Version: 6.00 Build 0)  -->
<svg version="1.1" id="Layer_1" xmlns="http://www.w3.org/2000/svg" xmlns:xlink="http://www.w3.org/1999/xlink" x="0px" y="0px"
	 viewBox="226 226.19 60 59.62" style="enable-background:new 226 226.19 60 59.62;" xml:space="preserve">
<style type="text/css">
	.st0{fill:#35A999;}
</style>
<g id="XMLID_1_">
	<g>
		<polygon class="st0" points="286,246.73 286,269.87 258.56,285.81 258.56,262.67 		"/>
		<path class="st0" d="M263.68,244.73c-0.26,1.72-3.6,3.08-7.7,3.08c-4.11,0-7.45-1.36-7.71-3.08h-0.02v4.06
			c0,1.82,3.46,3.29,7.73,3.29c4.26,0,7.72-1.47,7.72-3.29v-4.06H263.68z M242.33,244.37c4.27,0,7.72-1.47,7.72-3.29v-4.06h-0.02
			l0.33-0.98c1.41,0.62,3.37,1,5.56,1c4.27,0,7.72-1.47,7.72-3.29v-3.09l4.97,2.89c0.33-0.02,0.67-0.03,1.01-0.03
			c4.27,0,7.73,1.47,7.73,3.29c0,0.63-0.41,1.21-1.12,1.7c-1.35,0.95-3.81,1.58-6.61,1.58c-4.1,0-7.45-1.35-7.71-3.07h-0.02v4.06
			c0,1.82,3.46,3.29,7.73,3.29s7.73-1.47,7.73-3.29v-2.45l6.18,3.59l-27.35,15.88l-27.53-15.99l5.95-3.45v2.42
			C234.6,242.9,238.06,244.37,242.33,244.37z"/>
		<path class="st0" d="M263.64,229.48c0,0.39-0.16,0.77-0.47,1.12c-1.08,1.26-3.91,2.16-7.25,2.16c-3.47,0-6.4-0.97-7.38-2.31
			c-0.23-0.31-0.35-0.63-0.35-0.97c0-1.82,3.46-3.29,7.73-3.29S263.64,227.66,263.64,229.48z"/>
		<polygon class="st0" points="253.44,262.46 253.44,285.8 226,269.87 226,246.52 		"/>
		<path class="st0" d="M250.03,237.02c-0.26,1.72-3.6,3.07-7.7,3.07c-3.2,0-5.95-0.83-7.13-2c-0.38-0.39-0.6-0.83-0.6-1.28
			c0-1.82,3.46-3.29,7.73-3.29c0.35,0,0.7,0.02,1.05,0.03l4.81-2.79v2.99c0,0.44,0.2,0.85,0.56,1.23c0.29,0.19,0.54,0.39,0.73,0.59
			c0.26,0.17,0.56,0.32,0.88,0.47L250.03,237.02z"/>
	</g>
	<g>
	</g>
</g>
</svg>
