<?xml version="1.0" encoding="utf-8"?>
<!-- Generator: Adobe Illustrator 23.1.0, SVG Export Plug-In . SVG Version: 6.00 Build 0)  -->
<svg version="1.1" id="Layer_1" xmlns="http://www.w3.org/2000/svg" xmlns:xlink="http://www.w3.org/1999/xlink" x="0px" y="0px"
	 viewBox="239.67 239.76 32.67 32.49" style="enable-background:new 239.67 239.76 32.67 32.49;" xml:space="preserve">
<style type="text/css">
	.st0{fill:#FFFFFF;}
	.st1{fill:#63D1BB;}
</style>
<g id="XMLID_1_">
	<g>
		<path class="st0" d="M253.82,245.92c0.34,0.68,0.61,1.39,0.79,2.09c-3.08-0.32-5.08-1-6.23-1.73c-0.63-0.39-1-0.78-1.22-1.13
			c-0.22-0.36-0.3-0.67-0.3-0.97c0-0.06,0-0.13,0.01-0.19c0.06-0.44,0.3-0.9,0.68-1.27c0.44-0.41,1.03-0.66,1.57-0.66h0.01
			c0.68,0,1.36,0.23,2.04,0.68C252.19,243.41,253.15,244.59,253.82,245.92z"/>
		<rect x="256.93" y="258.33" class="st1" width="12.51" height="13.91"/>
		<rect x="242.56" y="258.33" class="st1" width="12.5" height="13.91"/>
		<path class="st1" d="M256.1,244.89c0.82-1.62,1.97-3.09,3.43-4.07c0.96-0.65,2.1-1.07,3.32-1.07c1.14,0.01,2.21,0.42,3.01,1.12
			c0.8,0.7,1.36,1.74,1.36,2.91c0,1.42-0.83,2.86-2.42,4c-0.41,0.29-0.87,0.57-1.4,0.84h7.34c0.88,0,1.59,0.71,1.59,1.59v5.9h-15.4
			v-7.49h-1.87l-0.45-0.61c-0.18-0.7-0.45-1.41-0.79-2.09c-0.67-1.33-1.63-2.51-2.65-3.18c-0.68-0.45-1.36-0.68-2.04-0.68h-0.01
			c-0.54,0-1.13,0.25-1.57,0.66c-0.38,0.37-0.62,0.83-0.68,1.27l-2.29-0.15c0.09-1.11,0.64-2.08,1.39-2.79
			c0.83-0.78,1.94-1.29,3.16-1.3c1.22,0,2.35,0.43,3.32,1.07c0.97,0.65,1.8,1.53,2.5,2.51c0.39,0.57,0.74,1.17,1.04,1.8
			C256.02,245.05,256.06,244.97,256.1,244.89z M262.85,242.06c-0.69,0-1.37,0.23-2.05,0.68s-1.33,1.12-1.89,1.91
			c-0.74,1.05-1.29,2.32-1.58,3.52c3.02-0.59,4.99-1.44,6.12-2.26c1.2-0.88,1.47-1.62,1.47-2.13c0-0.44-0.2-0.84-0.57-1.17
			C263.97,242.28,263.43,242.06,262.85,242.06z"/>
		<path class="st1" d="M248.38,246.28c1.15,0.73,3.15,1.41,6.23,1.73l0.45,0.61v7.49h-15.4v-5.9c0-0.88,0.71-1.59,1.59-1.59h6.59
			c-1.21-0.62-2.08-1.38-2.63-2.25c-0.44-0.69-0.65-1.46-0.65-2.19c0-0.12,0-0.23,0.02-0.34l2.29,0.15
			c-0.01,0.06-0.01,0.13-0.01,0.19c0,0.3,0.08,0.61,0.3,0.97C247.38,245.5,247.75,245.89,248.38,246.28z"/>
	</g>
	<g>
	</g>
</g>
</svg>
