<?xml version="1.0" encoding="utf-8"?>
<!-- Generator: Adobe Illustrator 23.1.0, SVG Export Plug-In . SVG Version: 6.00 Build 0)  -->
<svg version="1.1" id="Layer_1" xmlns="http://www.w3.org/2000/svg" xmlns:xlink="http://www.w3.org/1999/xlink" x="0px" y="0px"
	 viewBox="0 0 34.37 34.37" style="enable-background:new 0 0 34.37 34.37;" xml:space="preserve">
<style type="text/css">
	.st0{fill:#6CC7B6;}
</style>
<g>
	<g id="XMLID_1_">
		<g>
			<path class="st0" d="M33.9,13.17c0.59,2.46,0.62,5,0.13,7.45l-4.94-3.7L33.9,13.17z"/>
			<path class="st0" d="M27.34,18.28l6.08,4.56c-0.24,0.69-0.53,1.37-0.86,2.03l-6.97-5.22L27.34,18.28z"/>
			<path class="st0" d="M33.22,10.99L7.26,31.22c-0.59-0.42-1.16-0.88-1.71-1.38L32.3,9C32.65,9.65,32.96,10.31,33.22,10.99z"/>
			<path class="st0" d="M23.84,21.01l7.64,5.72c-0.39,0.59-0.82,1.16-1.3,1.7l-8.09-6.06L23.84,21.01z"/>
			<path class="st0" d="M31.16,7.17L4.06,28.28c-0.14-0.17-0.29-0.35-0.43-0.53c-0.3-0.39-0.58-0.78-0.84-1.18L29.8,5.52
				c0.33,0.35,0.64,0.72,0.94,1.1C30.89,6.8,31.02,6.99,31.16,7.17z"/>
			<path class="st0" d="M20.34,23.74l8.33,6.23c-0.3,0.27-0.6,0.52-0.92,0.77c-0.27,0.21-0.54,0.41-0.82,0.6l-8.34-6.24L20.34,23.74
				z"/>
			<path class="st0" d="M28.24,4.02L1.72,24.68c-0.33-0.67-0.61-1.36-0.84-2.05L26.45,2.7C27.07,3.1,27.67,3.54,28.24,4.02z"/>
			<path class="st0" d="M16.84,26.46l8.1,6.07c-5.01,2.53-10.89,2.42-15.73-0.12L16.84,26.46z"/>
			<path class="st0" d="M24.4,1.58l-7.74,6.04L9.15,1.99C13.96-0.56,19.62-0.62,24.4,1.58z"/>
			<path class="st0" d="M14.91,8.98l-1.75,1.36L5.49,4.6c0.36-0.34,0.74-0.66,1.13-0.97C6.81,3.48,7,3.34,7.2,3.2L14.91,8.98z"/>
			<path class="st0" d="M11.41,11.71l-1.75,1.36L2.73,7.88C3.12,7.28,3.54,6.71,4,6.16L11.41,11.71z"/>
			<path class="st0" d="M7.91,14.43l-1.75,1.36l-5.3-3.97c0.23-0.7,0.5-1.39,0.82-2.05L7.91,14.43z"/>
			<path class="st0" d="M4.41,17.16l-4.12,3.21c-0.39-2.09-0.39-4.23,0-6.3L4.41,17.16z"/>
		</g>
		<g>
		</g>
	</g>
</g>
</svg>
