<?xml version="1.0" encoding="utf-8"?>
<!-- Generator: Adobe Illustrator 23.1.0, SVG Export Plug-In . SVG Version: 6.00 Build 0)  -->
<svg version="1.1" id="Layer_1" xmlns="http://www.w3.org/2000/svg" xmlns:xlink="http://www.w3.org/1999/xlink" x="0px" y="0px"
	 viewBox="612.53 500.39 54.16 23.18" style="enable-background:new 612.53 500.39 54.16 23.18;" xml:space="preserve">
<style type="text/css">
	.st0{fill:#63D1BB;}
</style>
<g>
	<g id="XMLID_1_">
		<g>
			<path class="st0" d="M656.27,507.13c6.4,2.17,10.42,4.85,10.42,4.85s-4.02,2.68-10.42,4.84c-1.29-1.61-1.98-3.25-1.97-4.85
				C654.3,510.38,654.98,508.74,656.27,507.13z"/>
			<path class="st0" d="M652.84,506.1c-1.17,1.77-1.91,3.74-1.91,5.88c0,2.14,0.74,4.1,1.91,5.88c-3.64,0.97-7.83,1.66-12.36,1.67
				c-2.85-0.01-5.42-0.25-7.68-0.65l-6.81,4.69h-13.46l5.81-6.19h8.63c-4.62-1.6-6.93-3.51-6.93-3.51l-0.01-3.78
				c0,0,2.18-1.92,6.76-3.51h-8.45l-5.81-6.19h13.46l6.78,4.66c2.26-0.38,4.82-0.62,7.71-0.62C645,504.43,649.2,505.13,652.84,506.1
				z"/>
		</g>
		<g>
		</g>
	</g>
</g>
</svg>
