<?xml version="1.0" encoding="utf-8"?>
<!-- Generator: Adobe Illustrator 23.1.0, SVG Export Plug-In . SVG Version: 6.00 Build 0)  -->
<svg version="1.1" id="Layer_1" xmlns="http://www.w3.org/2000/svg" xmlns:xlink="http://www.w3.org/1999/xlink" x="0px" y="0px"
	 viewBox="0 0 17.6 17.6" style="enable-background:new 0 0 17.6 17.6;" xml:space="preserve">
<style type="text/css">
	.st0{fill:#231F20;}
</style>
<path class="st0" d="M16.64,15.27l-3.16-3.19c0.89-1.2,1.43-2.69,1.43-4.31c0-3.97-3.19-7.19-7.13-7.19S0.65,3.8,0.65,7.77
	c0,3.97,3.19,7.19,7.13,7.19c1.61,0,3.08-0.54,4.27-1.44l3.16,3.19c0.19,0.19,0.39,0.31,0.71,0.31c0.56,0,1.02-0.46,1.02-1.03
	C16.95,15.77,16.89,15.53,16.64,15.27z M2.69,7.77c0-2.84,2.28-5.14,5.09-5.14s5.09,2.3,5.09,5.14s-2.28,5.14-5.09,5.14
	S2.69,10.61,2.69,7.77z"/>
</svg>
