<?xml version="1.0" encoding="utf-8"?>
<!-- Generator: Adobe Illustrator 23.1.0, SVG Export Plug-In . SVG Version: 6.00 Build 0)  -->
<svg version="1.1" id="Money" xmlns="http://www.w3.org/2000/svg" xmlns:xlink="http://www.w3.org/1999/xlink" x="0px" y="0px"
	 viewBox="46.21 56.83 46.58 27.33" style="enable-background:new 46.21 56.83 46.58 27.33;" xml:space="preserve">
<style type="text/css">
	.st0{fill:#63D1BB;}
</style>
<g id="XMLID_1_">
	<g>
		<path class="st0" d="M85.53,63.46v14.42H69.5v-1.9c2.94,0,5.31-2.38,5.31-5.31c0-2.94-2.37-5.32-5.31-5.32v-1.89H85.53z"/>
		<path class="st0" d="M69.5,75.98v1.9H53.14V63.46H69.5v1.89c-2.94,0-5.31,2.38-5.31,5.32C64.19,73.6,66.56,75.98,69.5,75.98z"/>
		<path class="st0" d="M89.44,81.78V59.55h-40.2v22.23H89.44z M88.88,56.83c2.16,0,3.91,1.75,3.91,3.91v19.52
			c0,2.16-1.75,3.91-3.91,3.91H50.12c-2.16,0-3.91-1.75-3.91-3.91V60.74c0-2.16,1.75-3.91,3.91-3.91H88.88z"/>
	</g>
	<g>
	</g>
</g>
</svg>
